<svg width="44" height="44" viewBox="0 0 44 44" fill="none" xmlns="http://www.w3.org/2000/svg">
<g clip-path="url(#clip0_0_17)">
<rect width="44" height="44" rx="6" fill="black"/>
<path fill-rule="evenodd" clip-rule="evenodd" d="M24.7188 13.0318C24.0977 13.8048 23.0547 14.3846 22.2227 14.3846C22.1289 14.3846 22.0352 14.3725 21.9766 14.3605C21.9648 14.3121 21.9414 14.1672 21.9414 14.0223C21.9414 13.0318 22.4219 12.0655 22.9492 11.4495C23.6172 10.6402 24.7305 10.0362 25.6562 10C25.6797 10.1087 25.6914 10.2416 25.6914 10.3744C25.6914 11.3528 25.2812 12.3312 24.7188 13.0318ZM20.6433 28.6399C20.2257 28.8248 19.8299 29 19.293 29C18.1445 29 17.3477 27.9129 16.4336 26.5842C15.3672 25.014 14.5 22.5861 14.5 20.2912C14.5 16.595 16.832 14.6383 19.1289 14.6383C19.7993 14.6383 20.4119 14.8916 20.9565 15.1169C21.3925 15.2973 21.785 15.4596 22.1289 15.4596C22.4272 15.4596 22.7989 15.3082 23.2321 15.1318C23.8372 14.8853 24.5623 14.59 25.375 14.59C25.8906 14.59 27.7773 14.6383 29.0195 16.4743C29.0124 16.48 28.9972 16.4903 28.9751 16.5053C28.6695 16.7133 27.0391 17.8227 27.0391 20.0979C27.0391 22.9123 29.418 23.9148 29.5 23.939C29.4979 23.9444 29.493 23.9599 29.4853 23.9845C29.4071 24.234 29.0343 25.4233 28.2344 26.6325C27.4492 27.7921 26.6172 28.9758 25.375 28.9758C24.7628 28.9758 24.3726 28.7978 23.9698 28.6139C23.54 28.4177 23.0957 28.2149 22.3516 28.2149C21.6034 28.2149 21.1097 28.4334 20.6433 28.6399Z" fill="white"/>
</g>
<defs>
<clipPath id="clip0_0_17">
<rect width="44" height="44" fill="white"/>
</clipPath>
</defs>
</svg>
